<svg class="main-svg" xmlns="http://www.w3.org/2000/svg" xmlns:xlink="http://www.w3.org/1999/xlink" width="700" height="500" style="" viewBox="0 0 700 500"><rect x="0" y="0" width="700" height="500" style="fill: rgb(255, 255, 255); fill-opacity: 1;"/><defs id="defs-7733d3"><g class="clips"><clipPath id="clip7733d3xyplot" class="plotclip"><rect width="475" height="320"/></clipPath><clipPath class="axesclip" id="clip7733d3x"><rect x="80" y="0" width="475" height="500"/></clipPath><clipPath class="axesclip" id="clip7733d3y"><rect x="0" y="100" width="700" height="320"/></clipPath><clipPath class="axesclip" id="clip7733d3xy"><rect x="80" y="100" width="475" height="320"/></clipPath></g><g class="gradients"/><g class="patterns"/></defs><g class="bglayer"><rect class="bg" x="80" y="100" width="475" height="320" style="fill: rgb(229, 236, 246); fill-opacity: 1; stroke-width: 0;"/></g><g class="layer-below"><g class="imagelayer"/><g class="shapelayer"/></g><g class="cartesianlayer"><g class="subplot xy"><g class="layer-subplot"><g class="shapelayer"/><g class="imagelayer"/></g><g class="minor-gridlayer"><g class="x"/><g class="y"/></g><g class="gridlayer"><g class="x"><path class="xgrid crisp" transform="translate(214.34,0)" d="M0,100v320" style="stroke: rgb(255, 255, 255); stroke-opacity: 1; stroke-width: 1px;"/><path class="xgrid crisp" transform="translate(350.9,0)" d="M0,100v320" style="stroke: rgb(255, 255, 255); stroke-opacity: 1; stroke-width: 1px;"/><path class="xgrid crisp" transform="translate(485.23,0)" d="M0,100v320" style="stroke: rgb(255, 255, 255); stroke-opacity: 1; stroke-width: 1px;"/></g><g class="y"><path class="ygrid crisp" transform="translate(0,406.39)" d="M80,0h475" style="stroke: rgb(255, 255, 255); stroke-opacity: 1; stroke-width: 1px;"/><path class="ygrid crisp" transform="translate(0,342.76)" d="M80,0h475" style="stroke: rgb(255, 255, 255); stroke-opacity: 1; stroke-width: 1px;"/><path class="ygrid crisp" transform="translate(0,279.14)" d="M80,0h475" style="stroke: rgb(255, 255, 255); stroke-opacity: 1; stroke-width: 1px;"/><path class="ygrid crisp" transform="translate(0,215.51999999999998)" d="M80,0h475" style="stroke: rgb(255, 255, 255); stroke-opacity: 1; stroke-width: 1px;"/><path class="ygrid crisp" transform="translate(0,151.89)" d="M80,0h475" style="stroke: rgb(255, 255, 255); stroke-opacity: 1; stroke-width: 1px;"/></g></g><g class="zerolinelayer"/><g class="layer-between"><g class="shapelayer"/><g class="imagelayer"/></g><path class="xlines-below"/><path class="ylines-below"/><g class="overlines-below"/><g class="xaxislayer-below"/><g class="yaxislayer-below"/><g class="overaxes-below"/><g class="overplot"><g class="xy" transform="translate(80,100)" clip-path="url(#clip7733d3xyplot)"><g class="scatterlayer mlayer"><g class="trace scatter trace4d549d" style="stroke-miterlimit: 2; opacity: 1;"><g class="fills"/><g class="errorbars"/><g class="lines"><path class="js-line" d="M0,268.21L0.74,280.94L1.48,272.45L2.23,271.39L2.97,278.39L3.71,278.82L4.45,282.75L5.2,287.3L5.94,286.59L8.91,297.58L9.65,296.39L11.13,304L11.88,299.65L12.62,302.14L13.36,297.01L14.1,294.3L14.84,296.09L17.07,300.55L17.81,298.75L20.04,297.3L20.78,299.37L22.27,300.02L23.01,300.02L24.49,296.21L25.23,294.51L26.72,295.78L27.46,294.09L28.2,294.51L28.95,292.39L29.69,291.54L30.43,287.72L31.91,286.45L32.66,284.33L33.4,282.63L34.14,286.45L34.88,284.75L35.63,288.15L37.11,290.69L37.85,288.15L38.59,286.87L39.34,283.91L42.3,289.42L43.05,287.72L45.27,281.36L46.02,284.33L46.76,285.18L47.5,283.91L48.24,283.06L48.98,280.94L51.95,276.7L52.7,277.97L54.92,278.39L55.66,273.73L57.89,266.94L58.63,263.97L60.86,251.67L61.6,252.52L64.57,243.61L65.31,239.79L66.05,237.67L66.8,238.52L67.54,238.95L68.28,234.7L69.77,231.74L70.51,226.65L74.22,222.4L74.96,220.28L77.19,210.53L77.93,216.04L80.9,207.13L81.64,207.56L83.87,214.34L84.61,215.19L86.84,206.71L87.58,210.1L88.32,212.22L89.06,210.1L89.8,208.41L90.55,209.26L91.29,208.41L92.03,210.53L93.52,215.19L94.26,217.31L95.74,219.43L96.48,218.16L97.97,223.68L98.71,229.19L99.45,228.34L100.2,225.8L102.42,227.92L103.16,231.31L103.91,229.61L104.65,225.37L105.39,224.1L106.13,219.43L107.62,211.8L108.36,218.16L109.84,221.56L110.59,219.86L112.07,213.92L112.81,213.92L113.55,217.31L114.3,216.89L115.04,212.65L115.78,215.19L117.27,208.41L118.01,199.08L118.75,198.65L119.49,196.53L121.72,185.08L122.46,180.41L123.2,177.44L123.95,180.41L126.17,177.87L126.91,179.56L128.4,175.75L129.14,179.14L129.88,181.69L130.63,175.75L132.11,166.84L132.85,166.42L135.82,171.08L136.56,167.26L137.3,170.23L138.05,167.26L139.53,161.75L140.27,168.11L141.02,170.66L141.76,167.69L143.98,161.33L144.73,164.72L145.47,169.38L146.21,168.11L146.95,168.11L147.7,165.14L148.44,164.72L149.18,161.75L150.66,166.84L151.41,165.14L152.15,165.14L152.89,160.9L153.63,163.87L154.38,160.48L155.12,165.57L155.86,164.72L158.83,158.36L159.57,154.54L160.31,154.12L161.05,164.29L161.8,162.17L162.54,163.45L163.28,161.33L164.02,162.6L164.77,164.29L165.51,169.38L166.25,177.02L166.99,176.6L167.73,172.35L168.48,172.78L169.96,168.54L170.7,174.47L171.45,179.14L172.19,178.29L172.93,177.02L173.67,177.87L174.41,178.72L175.16,182.11L176.64,189.32L177.38,184.23L178.87,192.29L179.61,190.59L180.35,188.05L181.09,193.99L182.58,201.2L183.32,198.65L184.8,200.77L185.55,200.77L187.03,207.13L187.77,200.35L188.52,199.08L189.26,200.35L190,198.23L190.74,198.65L192.23,207.13L192.97,204.17L193.71,203.74L194.45,207.56L195.94,211.8L196.68,212.22L197.42,216.04L198.16,213.5L199.65,210.95L200.39,211.38L201.13,211.38L201.88,213.5L202.62,219.01L203.36,218.59L204.1,219.43L204.84,217.74L206.33,218.59L207.07,221.56L208.55,224.52L209.3,223.25L210.04,227.07L210.78,225.8L211.52,224.1L212.27,229.19L213.75,229.19L214.49,233.43L215.23,236.82L215.98,235.98L217.46,230.04L218.2,232.16L218.95,233.01L219.69,231.74L221.17,231.74L221.91,235.13L224.14,237.25L224.88,233.43L227.11,223.25L227.85,224.1L228.59,224.1L229.34,222.83L230.82,217.74L231.56,218.59L232.3,216.04L233.05,216.47L233.79,216.47L234.53,214.34L235.27,216.89L236.02,215.62L236.76,214.34L237.5,211.38L238.24,211.8L238.98,214.77L241.21,210.53L241.95,204.59L242.7,203.74L243.44,205.01L245.66,194.41L246.41,194.83L247.15,191.02L247.89,192.71L248.63,199.5L249.38,198.65L251.6,204.59L252.34,204.59L253.83,210.95L254.57,214.77L256.8,227.92L257.54,224.95L258.28,226.22L259.02,225.37L259.77,229.19L260.51,228.77L261.99,235.13L262.73,237.25L263.48,240.64L264.22,250.4L264.96,251.67L265.7,255.91L267.19,262.7L267.93,262.7L268.67,264.82L269.41,275.42L270.9,275.42L271.64,278.39L273.87,272.45L274.61,273.73L275.35,276.27L276.09,274.57L277.58,271.18L278.32,266.09L279.06,266.52L279.8,268.21L281.29,266.52L282.03,263.55L282.77,263.55L283.52,260.15L284.26,260.58L285,262.7L285.74,263.55L286.48,258.03L287.23,257.61L287.97,252.52L288.71,250.4L289.45,251.25L290.94,258.46L291.68,255.06L292.42,256.76L293.16,252.94L293.91,253.37L294.65,251.25L296.13,258.88L296.88,255.91L298.36,252.09L299.1,252.94L299.84,250.4L300.59,253.37L302.07,255.49L302.81,253.37L304.3,249.97L305.04,252.09L306.52,254.22L307.27,249.97L308.01,244.88L308.75,247L309.49,247.43L310.23,249.55L311.72,256.34L312.46,252.52L313.95,249.55L314.69,245.73L316.91,249.55L317.66,246.16L319.14,241.91L319.88,243.19L320.63,240.64L321.37,241.49L322.11,243.19L322.85,237.25L325.82,226.65L326.56,227.07L327.3,225.37L328.05,219.86L329.53,214.77L330.27,214.34L331.02,210.53L331.76,216.04L332.5,215.19L333.24,210.95L333.98,209.68L334.73,210.1L335.47,206.71L336.21,207.13L336.95,209.26L337.7,207.56L338.44,207.98L339.18,205.86L339.92,206.29L340.66,205.44L342.15,201.2L342.89,202.04L344.38,197.38L345.12,197.8L345.86,196.95L346.6,194.41L347.34,195.26L348.09,199.08L349.57,198.23L350.31,199.92L351.05,199.5L351.8,197.8L352.54,199.08L353.28,204.59L355.51,193.14L356.25,191.44L356.99,189.74L357.73,191.02L358.48,189.74L359.22,190.59L359.96,189.32L360.7,185.93L362.93,180.84L363.67,183.81L364.41,182.96L365.16,184.65L366.64,186.35L367.38,184.65L368.87,185.93L369.61,185.5L370.35,185.5L371.09,184.23L371.84,184.23L372.58,177.44L373.32,181.69L374.06,181.26L374.8,181.69L375.55,176.17L377.03,171.08L377.77,171.93L380,178.29L380.74,177.44L382.23,166.84L382.97,164.72L384.45,167.26L385.2,167.69L386.68,164.72L387.42,159.63L388.91,154.12L389.65,159.63L391.13,157.08L391.88,155.39L394.1,145.21L394.84,146.9L395.59,143.51L396.33,143.94L397.81,142.24L398.55,138.42L399.3,140.97L400.04,139.27L401.52,134.6L402.27,127.82L403.01,121.88L403.75,126.12L405.23,135.88L405.98,132.48" style="vector-effect: none; fill: none; stroke: rgb(99, 110, 250); stroke-opacity: 1; stroke-width: 2px; opacity: 1;"/></g><g class="points"/><g class="text"/></g><g class="trace scatter trace0301e9" style="stroke-miterlimit: 2;"><g class="fills"><g><path class="js-fill" d="M406.72,75.5L408.95,50.83L409.69,63.82L411.17,68.15L411.91,67.4L413.4,62.29L414.14,58.88L415.63,64.93L416.37,65.53L417.11,65.55L417.85,64.36L419.34,59.72L420.08,61.85L421.56,63.21L422.3,62.94L423.79,60.47L424.53,58.68L426.02,60.84L426.76,60.71L428.24,59.58L428.98,57.63L429.73,56.27L430.47,58.11L431.21,59.26L431.95,57.2L434.92,51.41L435.66,53.03L436.41,54.5L437.15,52.43L440.12,46.38L440.86,48.44L441.6,49.95L442.34,48.13L445.31,41.91L446.05,43.39L446.8,44.71L447.54,42.94L450.51,36.34L451.25,38.31L451.99,39.47L452.73,37.52L455.7,31.65L456.45,33.45L457.19,34.98L457.93,33.26L460.9,27.2L461.64,28.73L462.38,29.92L463.13,27.83L466.09,21.83L466.84,23.52L467.58,24.97L468.32,23.41L471.29,17.03L472.03,18.86L472.77,20.53L473.52,18.46L475,16L475,85.2L473.52,88.01L472.77,89.88L472.03,88.48L471.29,86.59L468.32,92.77L467.58,94.64L466.84,93.24L466.09,91.35L463.13,97.53L462.38,99.4L461.64,98L460.9,96.11L457.93,102.29L457.19,104.16L456.45,102.76L455.7,100.87L452.73,107.05L451.99,108.92L451.25,107.51L450.51,105.63L447.54,111.81L446.8,113.67L446.05,112.27L445.31,110.39L442.34,116.57L441.6,118.43L440.86,117.03L440.12,115.15L437.15,121.33L436.41,123.19L435.66,121.79L434.92,119.91L431.95,126.09L431.21,127.95L430.47,126.55L429.73,124.67L428.98,126.17L428.24,128.03L426.76,129.03L426.02,129L424.53,126.87L423.79,128.69L422.3,131.26L421.56,131.41L420.08,130.31L419.34,128.01L417.85,132.5L417.11,133.73L416.37,133.79L415.63,133.36L414.14,127.58L413.4,131.05L411.91,136.35L411.17,136.17L409.69,130.07L408.95,117.29L406.72,142.32Z" style="fill: rgb(0, 204, 150); fill-opacity: 0.5; stroke-width: 0;"/></g></g><g class="errorbars"/><g class="lines"><path class="js-line" d="M406.72,142.32L408.95,117.29L409.69,130.07L411.17,136.17L411.91,136.35L413.4,131.05L414.14,127.58L415.63,133.36L416.37,133.79L417.11,133.73L417.85,132.5L419.34,128.01L420.08,130.31L421.56,131.41L422.3,131.26L423.79,128.69L424.53,126.87L426.02,129L426.76,129.03L428.24,128.03L428.98,126.17L429.73,124.67L430.47,126.55L431.21,127.95L431.95,126.09L434.92,119.91L435.66,121.79L436.41,123.19L437.15,121.33L440.12,115.15L440.86,117.03L441.6,118.43L442.34,116.57L445.31,110.39L446.05,112.27L446.8,113.67L447.54,111.81L450.51,105.63L451.25,107.51L451.99,108.92L452.73,107.05L455.7,100.87L456.45,102.76L457.19,104.16L457.93,102.29L460.9,96.11L461.64,98L462.38,99.4L463.13,97.53L466.09,91.35L466.84,93.24L467.58,94.64L468.32,92.77L471.29,86.59L472.03,88.48L472.77,89.88L473.52,88.01L475,85.2" style="vector-effect: none; fill: none; stroke: rgb(239, 85, 59); stroke-opacity: 1; stroke-width: 2px; opacity: 1;"/></g><g class="points"/><g class="text"/></g><g class="trace scatter trace9290d0" style="stroke-miterlimit: 2;"><g class="fills"><g><path class="js-fill" d="M406.72,213.46L408.95,183.34L409.69,196.72L411.17,202.46L411.91,202.96L413.4,197.97L414.14,194.43L415.63,200.33L416.37,200.78L417.11,201.18L417.85,200.22L419.34,196.35L420.08,198.38L421.56,199.63L422.3,199.44L423.79,197.02L424.53,195.23L426.02,197.26L426.76,197.3L428.24,196.4L428.98,194.61L429.73,193.26L430.47,195.16L431.21,196.97L431.95,195.07L434.92,189.18L435.66,191.02L436.41,192.61L437.15,190.86L440.12,184.6L440.86,186.57L441.6,187.89L442.34,186.24L445.31,180.08L446.05,181.89L446.8,183.41L447.54,181.55L450.51,175.23L451.25,177.05L451.99,178.61L452.73,176.62L455.7,170.35L456.45,172.23L457.19,173.75L457.93,172.06L460.9,165.97L461.64,167.83L462.38,169.17L463.13,167.12L466.09,161.23L466.84,163.21L467.58,164.65L468.32,163.01L471.29,156.98L472.03,158.92L472.77,160.23L473.52,158.27L475,155.44L475,16L473.52,18.46L472.77,20.53L472.03,18.86L471.29,17.03L468.32,23.41L467.58,24.97L466.84,23.52L466.09,21.83L463.13,27.83L462.38,29.92L461.64,28.73L460.9,27.2L457.93,33.26L457.19,34.98L456.45,33.45L455.7,31.65L452.73,37.52L451.99,39.47L451.25,38.31L450.51,36.34L447.54,42.94L446.8,44.71L446.05,43.39L445.31,41.91L442.34,48.13L441.6,49.95L440.86,48.44L440.12,46.38L437.15,52.43L436.41,54.5L435.66,53.03L434.92,51.41L431.95,57.2L431.21,59.26L430.47,58.11L429.73,56.27L428.98,57.63L428.24,59.58L426.76,60.71L426.02,60.84L424.53,58.68L423.79,60.47L422.3,62.94L421.56,63.21L420.08,61.85L419.34,59.72L417.85,64.36L417.11,65.55L416.37,65.53L415.63,64.93L414.14,58.88L413.4,62.29L411.91,67.4L411.17,68.15L409.69,63.82L408.95,50.83L406.72,75.5Z" style="fill: rgb(171, 99, 250); fill-opacity: 0.5; stroke-width: 0;"/></g></g><g class="errorbars"/><g class="lines"><path class="js-line" d="M406.72,75.5L408.95,50.83L409.69,63.82L411.17,68.15L411.91,67.4L413.4,62.29L414.14,58.88L415.63,64.93L416.37,65.53L417.11,65.55L417.85,64.36L419.34,59.72L420.08,61.85L421.56,63.21L422.3,62.94L423.79,60.47L424.53,58.68L426.02,60.84L426.76,60.71L428.24,59.58L428.98,57.63L429.73,56.27L430.47,58.11L431.21,59.26L431.95,57.2L434.92,51.41L435.66,53.03L436.41,54.5L437.15,52.43L440.12,46.38L440.86,48.44L441.6,49.95L442.34,48.13L445.31,41.91L446.05,43.39L446.8,44.71L447.54,42.94L450.51,36.34L451.25,38.31L451.99,39.47L452.73,37.52L455.7,31.65L456.45,33.45L457.19,34.98L457.93,33.26L460.9,27.2L461.64,28.73L462.38,29.92L463.13,27.83L466.09,21.83L466.84,23.52L467.58,24.97L468.32,23.41L471.29,17.03L472.03,18.86L472.77,20.53L473.52,18.46L475,16" style="vector-effect: none; fill: none; stroke: rgb(0, 204, 150); stroke-opacity: 1; stroke-width: 2px; opacity: 1;"/></g><g class="points"/><g class="text"/></g><g class="trace scatter traced4f461" style="stroke-miterlimit: 2;"><g class="fills"/><g class="errorbars"/><g class="lines"><path class="js-line" d="M406.72,213.46L408.95,183.34L409.69,196.72L411.17,202.46L411.91,202.96L413.4,197.97L414.14,194.43L415.63,200.33L416.37,200.78L417.11,201.18L417.85,200.22L419.34,196.35L420.08,198.38L421.56,199.63L422.3,199.44L423.79,197.02L424.53,195.23L426.02,197.26L426.76,197.3L428.24,196.4L428.98,194.61L429.73,193.26L430.47,195.16L431.21,196.97L431.95,195.07L434.92,189.18L435.66,191.02L436.41,192.61L437.15,190.86L440.12,184.6L440.86,186.57L441.6,187.89L442.34,186.24L445.31,180.08L446.05,181.89L446.8,183.41L447.54,181.55L450.51,175.23L451.25,177.05L451.99,178.61L452.73,176.62L455.7,170.35L456.45,172.23L457.19,173.75L457.93,172.06L460.9,165.97L461.64,167.83L462.38,169.17L463.13,167.12L466.09,161.23L466.84,163.21L467.58,164.65L468.32,163.01L471.29,156.98L472.03,158.92L472.77,160.23L473.52,158.27L475,155.44" style="vector-effect: none; fill: none; stroke: rgb(171, 99, 250); stroke-opacity: 1; stroke-width: 2px; opacity: 1;"/></g><g class="points"/><g class="text"/></g></g></g></g><path class="xlines-above crisp" d="M0,0" style="fill: none;"/><path class="ylines-above crisp" d="M0,0" style="fill: none;"/><g class="overlines-above"/><g class="xaxislayer-above"><g class="xtick"><text text-anchor="middle" x="0" y="433" transform="translate(80,0)" style="font-family: 'Open Sans', verdana, arial, sans-serif; font-size: 12px; fill: rgb(42, 63, 95); fill-opacity: 1; white-space: pre; opacity: 1;">Jan 2013</text></g><g class="xtick"><text text-anchor="middle" x="0" y="433" style="font-family: 'Open Sans', verdana, arial, sans-serif; font-size: 12px; fill: rgb(42, 63, 95); fill-opacity: 1; white-space: pre; opacity: 1;" transform="translate(214.34,0)">Jul 2013</text></g><g class="xtick"><text text-anchor="middle" x="0" y="433" style="font-family: 'Open Sans', verdana, arial, sans-serif; font-size: 12px; fill: rgb(42, 63, 95); fill-opacity: 1; white-space: pre; opacity: 1;" transform="translate(350.9,0)">Jan 2014</text></g><g class="xtick"><text text-anchor="middle" x="0" y="433" style="font-family: 'Open Sans', verdana, arial, sans-serif; font-size: 12px; fill: rgb(42, 63, 95); fill-opacity: 1; white-space: pre; opacity: 1;" transform="translate(485.23,0)">Jul 2014</text></g></g><g class="yaxislayer-above"><g class="ytick"><text text-anchor="end" x="79" y="4.199999999999999" transform="translate(0,406.39)" style="font-family: 'Open Sans', verdana, arial, sans-serif; font-size: 12px; fill: rgb(42, 63, 95); fill-opacity: 1; white-space: pre; opacity: 1;">10</text></g><g class="ytick"><text text-anchor="end" x="79" y="4.199999999999999" style="font-family: 'Open Sans', verdana, arial, sans-serif; font-size: 12px; fill: rgb(42, 63, 95); fill-opacity: 1; white-space: pre; opacity: 1;" transform="translate(0,342.76)">15</text></g><g class="ytick"><text text-anchor="end" x="79" y="4.199999999999999" style="font-family: 'Open Sans', verdana, arial, sans-serif; font-size: 12px; fill: rgb(42, 63, 95); fill-opacity: 1; white-space: pre; opacity: 1;" transform="translate(0,279.14)">20</text></g><g class="ytick"><text text-anchor="end" x="79" y="4.199999999999999" style="font-family: 'Open Sans', verdana, arial, sans-serif; font-size: 12px; fill: rgb(42, 63, 95); fill-opacity: 1; white-space: pre; opacity: 1;" transform="translate(0,215.51999999999998)">25</text></g><g class="ytick"><text text-anchor="end" x="79" y="4.199999999999999" style="font-family: 'Open Sans', verdana, arial, sans-serif; font-size: 12px; fill: rgb(42, 63, 95); fill-opacity: 1; white-space: pre; opacity: 1;" transform="translate(0,151.89)">30</text></g></g><g class="overaxes-above"/></g></g><g class="polarlayer"/><g class="smithlayer"/><g class="ternarylayer"/><g class="geolayer"/><g class="funnelarealayer"/><g class="pielayer"/><g class="iciclelayer"/><g class="treemaplayer"/><g class="sunburstlayer"/><g class="glimages"/><defs id="topdefs-7733d3"><g class="clips"/><clipPath id="legend7733d3"><rect width="124" height="86" x="0" y="0"/></clipPath></defs><g class="layer-above"><g class="imagelayer"/><g class="shapelayer"/></g><g class="infolayer"><g class="legend" pointer-events="all" transform="translate(564.5,100)"><rect class="bg" shape-rendering="crispEdges" style="stroke: rgb(68, 68, 68); stroke-opacity: 1; fill: rgb(255, 255, 255); fill-opacity: 1; stroke-width: 0px;" width="124" height="86" x="0" y="0"/><g class="scrollbox" transform="" clip-path="url(#legend7733d3)"><g class="groups"><g class="traces" transform="translate(0,14.5)" style="opacity: 1;"><text class="legendtext" text-anchor="start" x="40" y="4.680000000000001" style="font-family: 'Open Sans', verdana, arial, sans-serif; font-size: 12px; fill: rgb(42, 63, 95); fill-opacity: 1; white-space: pre;">Lower Bound</text><g class="layers"><g class="legendfill"><path class="js-fill" d="M5,-2h30v6h-30z" style="stroke-width: 0; fill: rgb(171, 99, 250); fill-opacity: 0.5;"/></g><g class="legendlines"><path class="js-line" d="M5,-2h30" style="fill: none; stroke: rgb(171, 99, 250); stroke-opacity: 1; stroke-width: 2px;"/></g><g class="legendsymbols"><g class="legendpoints"/></g></g><rect class="legendtoggle" x="0" y="-9.5" width="118.5625" height="19" style="fill: rgb(0, 0, 0); fill-opacity: 0;"/></g><g class="traces" transform="translate(0,33.5)" style="opacity: 1;"><text class="legendtext" text-anchor="start" x="40" y="4.680000000000001" style="font-family: 'Open Sans', verdana, arial, sans-serif; font-size: 12px; fill: rgb(42, 63, 95); fill-opacity: 1; white-space: pre;">Upper Bound</text><g class="layers"><g class="legendfill"><path class="js-fill" d="M5,-2h30v6h-30z" style="stroke-width: 0; fill: rgb(0, 204, 150); fill-opacity: 0.5;"/></g><g class="legendlines"><path class="js-line" d="M5,-2h30" style="fill: none; stroke: rgb(0, 204, 150); stroke-opacity: 1; stroke-width: 2px;"/></g><g class="legendsymbols"><g class="legendpoints"/></g></g><rect class="legendtoggle" x="0" y="-9.5" width="118.5625" height="19" style="fill: rgb(0, 0, 0); fill-opacity: 0;"/></g><g class="traces" transform="translate(0,52.5)" style="opacity: 1;"><text class="legendtext" text-anchor="start" x="40" y="4.680000000000001" style="font-family: 'Open Sans', verdana, arial, sans-serif; font-size: 12px; fill: rgb(42, 63, 95); fill-opacity: 1; white-space: pre;">Forecast</text><g class="layers"><g class="legendfill"/><g class="legendlines"><path class="js-line" d="M5,0h30" style="fill: none; stroke: rgb(239, 85, 59); stroke-opacity: 1; stroke-width: 2px;"/></g><g class="legendsymbols"><g class="legendpoints"/></g></g><rect class="legendtoggle" x="0" y="-9.5" width="118.5625" height="19" style="fill: rgb(0, 0, 0); fill-opacity: 0;"/></g><g class="traces" transform="translate(0,71.5)" style="opacity: 1;"><text class="legendtext" text-anchor="start" x="40" y="4.680000000000001" style="font-family: 'Open Sans', verdana, arial, sans-serif; font-size: 12px; fill: rgb(42, 63, 95); fill-opacity: 1; white-space: pre;">Actual Sales</text><g class="layers" style="opacity: 1;"><g class="legendfill"/><g class="legendlines"><path class="js-line" d="M5,0h30" style="fill: none; stroke: rgb(99, 110, 250); stroke-opacity: 1; stroke-width: 2px;"/></g><g class="legendsymbols"><g class="legendpoints"/></g></g><rect class="legendtoggle" x="0" y="-9.5" width="118.5625" height="19" style="fill: rgb(0, 0, 0); fill-opacity: 0;"/></g></g></g><rect class="scrollbar" rx="20" ry="3" width="0" height="0" style="fill: rgb(128, 139, 164); fill-opacity: 1;" x="0" y="0"/></g><g class="g-gtitle"/><g class="g-xtitle"/><g class="g-ytitle"/></g></svg>